<svg class="rich-terminal" viewBox="0 0 994 635.5999999999999" xmlns="http://www.w3.org/2000/svg">
    <!-- Generated with Rich https://www.textualize.io -->
    <style>

    @font-face {
        font-family: "Fira Code";
        src: local("FiraCode-Regular"),
                url("https://cdnjs.cloudflare.com/ajax/libs/firacode/6.2.0/woff2/FiraCode-Regular.woff2") format("woff2"),
                url("https://cdnjs.cloudflare.com/ajax/libs/firacode/6.2.0/woff/FiraCode-Regular.woff") format("woff");
        font-style: normal;
        font-weight: 400;
    }
    @font-face {
        font-family: "Fira Code";
        src: local("FiraCode-Bold"),
                url("https://cdnjs.cloudflare.com/ajax/libs/firacode/6.2.0/woff2/FiraCode-Bold.woff2") format("woff2"),
                url("https://cdnjs.cloudflare.com/ajax/libs/firacode/6.2.0/woff/FiraCode-Bold.woff") format("woff");
        font-style: bold;
        font-weight: 700;
    }

    .terminal-matrix {
        font-family: Fira Code, monospace;
        font-size: 20px;
        line-height: 24.4px;
        font-variant-east-asian: full-width;
    }

    .terminal-title {
        font-size: 18px;
        font-weight: bold;
        font-family: arial;
    }

    .terminal-r1 { fill: #c5c8c6 }
.terminal-r2 { fill: #f3a87c;font-weight: bold }
.terminal-r3 { fill: #9aa0b8 }
.terminal-r4 { fill: #f6e3d4;font-weight: bold }
.terminal-r5 { fill: #f6e3d4 }
.terminal-r6 { fill: #9fd8a0 }
.terminal-r7 { fill: #2e2c3b }
.terminal-r8 { fill: #1c1b26 }
.terminal-r9 { fill: #efd08a }
.terminal-r10 { fill: #f2a7c3 }
.terminal-r11 { fill: #e2e2e3;font-weight: bold }
    </style>

    <defs>
    <clipPath id="terminal-clip-terminal">
      <rect x="0" y="0" width="975.0" height="584.5999999999999" />
    </clipPath>
    <clipPath id="terminal-line-0">
    <rect x="0" y="1.5" width="976" height="24.65"/>
            </clipPath>
<clipPath id="terminal-line-1">
    <rect x="0" y="25.9" width="976" height="24.65"/>
            </clipPath>
<clipPath id="terminal-line-2">
    <rect x="0" y="50.3" width="976" height="24.65"/>
            </clipPath>
<clipPath id="terminal-line-3">
    <rect x="0" y="74.7" width="976" height="24.65"/>
            </clipPath>
<clipPath id="terminal-line-4">
    <rect x="0" y="99.1" width="976" height="24.65"/>
            </clipPath>
<clipPath id="terminal-line-5">
    <rect x="0" y="123.5" width="976" height="24.65"/>
            </clipPath>
<clipPath id="terminal-line-6">
    <rect x="0" y="147.9" width="976" height="24.65"/>
            </clipPath>
<clipPath id="terminal-line-7">
    <rect x="0" y="172.3" width="976" height="24.65"/>
            </clipPath>
<clipPath id="terminal-line-8">
    <rect x="0" y="196.7" width="976" height="24.65"/>
            </clipPath>
<clipPath id="terminal-line-9">
    <rect x="0" y="221.1" width="976" height="24.65"/>
            </clipPath>
<clipPath id="terminal-line-10">
    <rect x="0" y="245.5" width="976" height="24.65"/>
            </clipPath>
<clipPath id="terminal-line-11">
    <rect x="0" y="269.9" width="976" height="24.65"/>
            </clipPath>
<clipPath id="terminal-line-12">
    <rect x="0" y="294.3" width="976" height="24.65"/>
            </clipPath>
<clipPath id="terminal-line-13">
    <rect x="0" y="318.7" width="976" height="24.65"/>
            </clipPath>
<clipPath id="terminal-line-14">
    <rect x="0" y="343.1" width="976" height="24.65"/>
            </clipPath>
<clipPath id="terminal-line-15">
    <rect x="0" y="367.5" width="976" height="24.65"/>
            </clipPath>
<clipPath id="terminal-line-16">
    <rect x="0" y="391.9" width="976" height="24.65"/>
            </clipPath>
<clipPath id="terminal-line-17">
    <rect x="0" y="416.3" width="976" height="24.65"/>
            </clipPath>
<clipPath id="terminal-line-18">
    <rect x="0" y="440.7" width="976" height="24.65"/>
            </clipPath>
<clipPath id="terminal-line-19">
    <rect x="0" y="465.1" width="976" height="24.65"/>
            </clipPath>
<clipPath id="terminal-line-20">
    <rect x="0" y="489.5" width="976" height="24.65"/>
            </clipPath>
<clipPath id="terminal-line-21">
    <rect x="0" y="513.9" width="976" height="24.65"/>
            </clipPath>
<clipPath id="terminal-line-22">
    <rect x="0" y="538.3" width="976" height="24.65"/>
            </clipPath>
    </defs>

    <rect fill="#292929" stroke="rgba(255,255,255,0.35)" stroke-width="1" x="1" y="1" width="992" height="633.6" rx="8"/><text class="terminal-title" fill="#c5c8c6" text-anchor="middle" x="496" y="27">cuanta</text>
            <g transform="translate(26,22)">
            <circle cx="0" cy="0" r="7" fill="#ff5f57"/>
            <circle cx="22" cy="0" r="7" fill="#febc2e"/>
            <circle cx="44" cy="0" r="7" fill="#28c840"/>
            </g>
        
    <g transform="translate(9, 41)" clip-path="url(#terminal-clip-terminal)">
    <rect fill="#24222f" x="0" y="1.5" width="12.2" height="24.65" shape-rendering="crispEdges"/><rect fill="#24222f" x="12.2" y="1.5" width="73.2" height="24.65" shape-rendering="crispEdges"/><rect fill="#24222f" x="85.4" y="1.5" width="48.8" height="24.65" shape-rendering="crispEdges"/><rect fill="#24222f" x="134.2" y="1.5" width="85.4" height="24.65" shape-rendering="crispEdges"/><rect fill="#24222f" x="219.6" y="1.5" width="146.4" height="24.65" shape-rendering="crispEdges"/><rect fill="#24222f" x="366" y="1.5" width="24.4" height="24.65" shape-rendering="crispEdges"/><rect fill="#24222f" x="390.4" y="1.5" width="158.6" height="24.65" shape-rendering="crispEdges"/><rect fill="#24222f" x="549" y="1.5" width="85.4" height="24.65" shape-rendering="crispEdges"/><rect fill="#24222f" x="634.4" y="1.5" width="12.2" height="24.65" shape-rendering="crispEdges"/><rect fill="#24222f" x="646.6" y="1.5" width="24.4" height="24.65" shape-rendering="crispEdges"/><rect fill="#24222f" x="671" y="1.5" width="73.2" height="24.65" shape-rendering="crispEdges"/><rect fill="#24222f" x="744.2" y="1.5" width="85.4" height="24.65" shape-rendering="crispEdges"/><rect fill="#24222f" x="829.6" y="1.5" width="146.4" height="24.65" shape-rendering="crispEdges"/><rect fill="#24222f" x="0" y="25.9" width="134.2" height="24.65" shape-rendering="crispEdges"/><rect fill="#24222f" x="134.2" y="25.9" width="85.4" height="24.65" shape-rendering="crispEdges"/><rect fill="#24222f" x="219.6" y="25.9" width="48.8" height="24.65" shape-rendering="crispEdges"/><rect fill="#24222f" x="268.4" y="25.9" width="24.4" height="24.65" shape-rendering="crispEdges"/><rect fill="#24222f" x="292.8" y="25.9" width="85.4" height="24.65" shape-rendering="crispEdges"/><rect fill="#24222f" x="378.2" y="25.9" width="122" height="24.65" shape-rendering="crispEdges"/><rect fill="#24222f" x="500.2" y="25.9" width="146.4" height="24.65" shape-rendering="crispEdges"/><rect fill="#24222f" x="646.6" y="25.9" width="24.4" height="24.65" shape-rendering="crispEdges"/><rect fill="#24222f" x="671" y="25.9" width="61" height="24.65" shape-rendering="crispEdges"/><rect fill="#24222f" x="732" y="25.9" width="109.8" height="24.65" shape-rendering="crispEdges"/><rect fill="#24222f" x="841.8" y="25.9" width="134.2" height="24.65" shape-rendering="crispEdges"/><rect fill="#24222f" x="0" y="50.3" width="134.2" height="24.65" shape-rendering="crispEdges"/><rect fill="#24222f" x="134.2" y="50.3" width="512.4" height="24.65" shape-rendering="crispEdges"/><rect fill="#24222f" x="646.6" y="50.3" width="24.4" height="24.65" shape-rendering="crispEdges"/><rect fill="#24222f" x="671" y="50.3" width="97.6" height="24.65" shape-rendering="crispEdges"/><rect fill="#24222f" x="768.6" y="50.3" width="109.8" height="24.65" shape-rendering="crispEdges"/><rect fill="#24222f" x="878.4" y="50.3" width="97.6" height="24.65" shape-rendering="crispEdges"/><rect fill="#24222f" x="0" y="74.7" width="134.2" height="24.65" shape-rendering="crispEdges"/><rect fill="#24222f" x="134.2" y="74.7" width="512.4" height="24.65" shape-rendering="crispEdges"/><rect fill="#24222f" x="646.6" y="74.7" width="24.4" height="24.65" shape-rendering="crispEdges"/><rect fill="#24222f" x="671" y="74.7" width="97.6" height="24.65" shape-rendering="crispEdges"/><rect fill="#24222f" x="768.6" y="74.7" width="48.8" height="24.65" shape-rendering="crispEdges"/><rect fill="#24222f" x="817.4" y="74.7" width="158.6" height="24.65" shape-rendering="crispEdges"/><rect fill="#24222f" x="0" y="99.1" width="976" height="24.65" shape-rendering="crispEdges"/><rect fill="#24222f" x="0" y="123.5" width="61" height="24.65" shape-rendering="crispEdges"/><rect fill="#24222f" x="61" y="123.5" width="12.2" height="24.65" shape-rendering="crispEdges"/><rect fill="#1c1b26" x="73.2" y="123.5" width="902.8" height="24.65" shape-rendering="crispEdges"/><rect fill="#24222f" x="0" y="147.9" width="12.2" height="24.65" shape-rendering="crispEdges"/><rect fill="#4d3c3e" x="12.2" y="147.9" width="12.2" height="24.65" shape-rendering="crispEdges"/><rect fill="#4d3c3e" x="24.4" y="147.9" width="12.2" height="24.65" shape-rendering="crispEdges"/><rect fill="#4d3c3e" x="36.6" y="147.9" width="12.2" height="24.65" shape-rendering="crispEdges"/><rect fill="#24222f" x="48.8" y="147.9" width="12.2" height="24.65" shape-rendering="crispEdges"/><rect fill="#24222f" x="61" y="147.9" width="12.2" height="24.65" shape-rendering="crispEdges"/><rect fill="#1c1b26" x="73.2" y="147.9" width="24.4" height="24.65" shape-rendering="crispEdges"/><rect fill="#24222f" x="97.6" y="147.9" width="841.8" height="24.65" shape-rendering="crispEdges"/><rect fill="#2e2c3b" x="939.4" y="147.9" width="12.2" height="24.65" shape-rendering="crispEdges"/><rect fill="#1c1b26" x="951.6" y="147.9" width="24.4" height="24.65" shape-rendering="crispEdges"/><rect fill="#24222f" x="0" y="172.3" width="24.4" height="24.65" shape-rendering="crispEdges"/><rect fill="#24222f" x="24.4" y="172.3" width="12.2" height="24.65" shape-rendering="crispEdges"/><rect fill="#24222f" x="36.6" y="172.3" width="24.4" height="24.65" shape-rendering="crispEdges"/><rect fill="#24222f" x="61" y="172.3" width="12.2" height="24.65" shape-rendering="crispEdges"/><rect fill="#1c1b26" x="73.2" y="172.3" width="24.4" height="24.65" shape-rendering="crispEdges"/><rect fill="#24222f" x="97.6" y="172.3" width="24.4" height="24.65" shape-rendering="crispEdges"/><rect fill="#24222f" x="122" y="172.3" width="85.4" height="24.65" shape-rendering="crispEdges"/><rect fill="#24222f" x="207.4" y="172.3" width="732" height="24.65" shape-rendering="crispEdges"/><rect fill="#2e2c3b" x="939.4" y="172.3" width="12.2" height="24.65" shape-rendering="crispEdges"/><rect fill="#1c1b26" x="951.6" y="172.3" width="24.4" height="24.65" shape-rendering="crispEdges"/><rect fill="#24222f" x="0" y="196.7" width="24.4" height="24.65" shape-rendering="crispEdges"/><rect fill="#24222f" x="24.4" y="196.7" width="12.2" height="24.65" shape-rendering="crispEdges"/><rect fill="#24222f" x="36.6" y="196.7" width="24.4" height="24.65" shape-rendering="crispEdges"/><rect fill="#24222f" x="61" y="196.7" width="12.2" height="24.65" shape-rendering="crispEdges"/><rect fill="#1c1b26" x="73.2" y="196.7" width="24.4" height="24.65" shape-rendering="crispEdges"/><rect fill="#24222f" x="97.6" y="196.7" width="24.4" height="24.65" shape-rendering="crispEdges"/><rect fill="#24222f" x="122" y="196.7" width="146.4" height="24.65" shape-rendering="crispEdges"/><rect fill="#24222f" x="268.4" y="196.7" width="48.8" height="24.65" shape-rendering="crispEdges"/><rect fill="#24222f" x="317.2" y="196.7" width="622.2" height="24.65" shape-rendering="crispEdges"/><rect fill="#2e2c3b" x="939.4" y="196.7" width="12.2" height="24.65" shape-rendering="crispEdges"/><rect fill="#1c1b26" x="951.6" y="196.7" width="24.4" height="24.65" shape-rendering="crispEdges"/><rect fill="#24222f" x="0" y="221.1" width="24.4" height="24.65" shape-rendering="crispEdges"/><rect fill="#24222f" x="24.4" y="221.1" width="12.2" height="24.65" shape-rendering="crispEdges"/><rect fill="#24222f" x="36.6" y="221.1" width="24.4" height="24.65" shape-rendering="crispEdges"/><rect fill="#24222f" x="61" y="221.1" width="12.2" height="24.65" shape-rendering="crispEdges"/><rect fill="#1c1b26" x="73.2" y="221.1" width="24.4" height="24.65" shape-rendering="crispEdges"/><rect fill="#24222f" x="97.6" y="221.1" width="24.4" height="24.65" shape-rendering="crispEdges"/><rect fill="#24222f" x="122" y="221.1" width="146.4" height="24.65" shape-rendering="crispEdges"/><rect fill="#24222f" x="268.4" y="221.1" width="134.2" height="24.65" shape-rendering="crispEdges"/><rect fill="#24222f" x="402.6" y="221.1" width="536.8" height="24.65" shape-rendering="crispEdges"/><rect fill="#2e2c3b" x="939.4" y="221.1" width="12.2" height="24.65" shape-rendering="crispEdges"/><rect fill="#1c1b26" x="951.6" y="221.1" width="24.4" height="24.65" shape-rendering="crispEdges"/><rect fill="#24222f" x="0" y="245.5" width="24.4" height="24.65" shape-rendering="crispEdges"/><rect fill="#24222f" x="24.4" y="245.5" width="12.2" height="24.65" shape-rendering="crispEdges"/><rect fill="#24222f" x="36.6" y="245.5" width="24.4" height="24.65" shape-rendering="crispEdges"/><rect fill="#24222f" x="61" y="245.5" width="12.2" height="24.65" shape-rendering="crispEdges"/><rect fill="#1c1b26" x="73.2" y="245.5" width="24.4" height="24.65" shape-rendering="crispEdges"/><rect fill="#24222f" x="97.6" y="245.5" width="24.4" height="24.65" shape-rendering="crispEdges"/><rect fill="#24222f" x="122" y="245.5" width="146.4" height="24.65" shape-rendering="crispEdges"/><rect fill="#24222f" x="268.4" y="245.5" width="73.2" height="24.65" shape-rendering="crispEdges"/><rect fill="#24222f" x="341.6" y="245.5" width="597.8" height="24.65" shape-rendering="crispEdges"/><rect fill="#2e2c3b" x="939.4" y="245.5" width="12.2" height="24.65" shape-rendering="crispEdges"/><rect fill="#1c1b26" x="951.6" y="245.5" width="24.4" height="24.65" shape-rendering="crispEdges"/><rect fill="#24222f" x="0" y="269.9" width="24.4" height="24.65" shape-rendering="crispEdges"/><rect fill="#24222f" x="24.4" y="269.9" width="12.2" height="24.65" shape-rendering="crispEdges"/><rect fill="#24222f" x="36.6" y="269.9" width="24.4" height="24.65" shape-rendering="crispEdges"/><rect fill="#24222f" x="61" y="269.9" width="12.2" height="24.65" shape-rendering="crispEdges"/><rect fill="#1c1b26" x="73.2" y="269.9" width="24.4" height="24.65" shape-rendering="crispEdges"/><rect fill="#24222f" x="97.6" y="269.9" width="24.4" height="24.65" shape-rendering="crispEdges"/><rect fill="#24222f" x="122" y="269.9" width="146.4" height="24.65" shape-rendering="crispEdges"/><rect fill="#24222f" x="268.4" y="269.9" width="158.6" height="24.65" shape-rendering="crispEdges"/><rect fill="#24222f" x="427" y="269.9" width="512.4" height="24.65" shape-rendering="crispEdges"/><rect fill="#2e2c3b" x="939.4" y="269.9" width="12.2" height="24.65" shape-rendering="crispEdges"/><rect fill="#1c1b26" x="951.6" y="269.9" width="24.4" height="24.65" shape-rendering="crispEdges"/><rect fill="#24222f" x="0" y="294.3" width="24.4" height="24.65" shape-rendering="crispEdges"/><rect fill="#24222f" x="24.4" y="294.3" width="12.2" height="24.65" shape-rendering="crispEdges"/><rect fill="#24222f" x="36.6" y="294.3" width="24.4" height="24.65" shape-rendering="crispEdges"/><rect fill="#24222f" x="61" y="294.3" width="12.2" height="24.65" shape-rendering="crispEdges"/><rect fill="#1c1b26" x="73.2" y="294.3" width="24.4" height="24.65" shape-rendering="crispEdges"/><rect fill="#24222f" x="97.6" y="294.3" width="24.4" height="24.65" shape-rendering="crispEdges"/><rect fill="#24222f" x="122" y="294.3" width="146.4" height="24.65" shape-rendering="crispEdges"/><rect fill="#24222f" x="268.4" y="294.3" width="36.6" height="24.65" shape-rendering="crispEdges"/><rect fill="#24222f" x="305" y="294.3" width="634.4" height="24.65" shape-rendering="crispEdges"/><rect fill="#2e2c3b" x="939.4" y="294.3" width="12.2" height="24.65" shape-rendering="crispEdges"/><rect fill="#1c1b26" x="951.6" y="294.3" width="24.4" height="24.65" shape-rendering="crispEdges"/><rect fill="#24222f" x="0" y="318.7" width="24.4" height="24.65" shape-rendering="crispEdges"/><rect fill="#24222f" x="24.4" y="318.7" width="12.2" height="24.65" shape-rendering="crispEdges"/><rect fill="#24222f" x="36.6" y="318.7" width="24.4" height="24.65" shape-rendering="crispEdges"/><rect fill="#24222f" x="61" y="318.7" width="12.2" height="24.65" shape-rendering="crispEdges"/><rect fill="#1c1b26" x="73.2" y="318.7" width="24.4" height="24.65" shape-rendering="crispEdges"/><rect fill="#24222f" x="97.6" y="318.7" width="24.4" height="24.65" shape-rendering="crispEdges"/><rect fill="#24222f" x="122" y="318.7" width="146.4" height="24.65" shape-rendering="crispEdges"/><rect fill="#24222f" x="268.4" y="318.7" width="109.8" height="24.65" shape-rendering="crispEdges"/><rect fill="#24222f" x="378.2" y="318.7" width="561.2" height="24.65" shape-rendering="crispEdges"/><rect fill="#1c1b26" x="939.4" y="318.7" width="12.2" height="24.65" shape-rendering="crispEdges"/><rect fill="#1c1b26" x="951.6" y="318.7" width="24.4" height="24.65" shape-rendering="crispEdges"/><rect fill="#24222f" x="0" y="343.1" width="24.4" height="24.65" shape-rendering="crispEdges"/><rect fill="#24222f" x="24.4" y="343.1" width="12.2" height="24.65" shape-rendering="crispEdges"/><rect fill="#24222f" x="36.6" y="343.1" width="24.4" height="24.65" shape-rendering="crispEdges"/><rect fill="#24222f" x="61" y="343.1" width="12.2" height="24.65" shape-rendering="crispEdges"/><rect fill="#1c1b26" x="73.2" y="343.1" width="24.4" height="24.65" shape-rendering="crispEdges"/><rect fill="#24222f" x="97.6" y="343.1" width="24.4" height="24.65" shape-rendering="crispEdges"/><rect fill="#24222f" x="122" y="343.1" width="146.4" height="24.65" shape-rendering="crispEdges"/><rect fill="#24222f" x="268.4" y="343.1" width="61" height="24.65" shape-rendering="crispEdges"/><rect fill="#24222f" x="329.4" y="343.1" width="610" height="24.65" shape-rendering="crispEdges"/><rect fill="#1c1b26" x="939.4" y="343.1" width="12.2" height="24.65" shape-rendering="crispEdges"/><rect fill="#1c1b26" x="951.6" y="343.1" width="24.4" height="24.65" shape-rendering="crispEdges"/><rect fill="#24222f" x="0" y="367.5" width="61" height="24.65" shape-rendering="crispEdges"/><rect fill="#24222f" x="61" y="367.5" width="12.2" height="24.65" shape-rendering="crispEdges"/><rect fill="#1c1b26" x="73.2" y="367.5" width="24.4" height="24.65" shape-rendering="crispEdges"/><rect fill="#24222f" x="97.6" y="367.5" width="841.8" height="24.65" shape-rendering="crispEdges"/><rect fill="#1c1b26" x="939.4" y="367.5" width="12.2" height="24.65" shape-rendering="crispEdges"/><rect fill="#1c1b26" x="951.6" y="367.5" width="24.4" height="24.65" shape-rendering="crispEdges"/><rect fill="#24222f" x="0" y="391.9" width="61" height="24.65" shape-rendering="crispEdges"/><rect fill="#24222f" x="61" y="391.9" width="12.2" height="24.65" shape-rendering="crispEdges"/><rect fill="#1c1b26" x="73.2" y="391.9" width="866.2" height="24.65" shape-rendering="crispEdges"/><rect fill="#1c1b26" x="939.4" y="391.9" width="12.2" height="24.65" shape-rendering="crispEdges"/><rect fill="#1c1b26" x="951.6" y="391.9" width="24.4" height="24.65" shape-rendering="crispEdges"/><rect fill="#24222f" x="0" y="416.3" width="61" height="24.65" shape-rendering="crispEdges"/><rect fill="#24222f" x="61" y="416.3" width="12.2" height="24.65" shape-rendering="crispEdges"/><rect fill="#1c1b26" x="73.2" y="416.3" width="24.4" height="24.65" shape-rendering="crispEdges"/><rect fill="#24222f" x="97.6" y="416.3" width="24.4" height="24.65" shape-rendering="crispEdges"/><rect fill="#24222f" x="122" y="416.3" width="109.8" height="24.65" shape-rendering="crispEdges"/><rect fill="#24222f" x="231.8" y="416.3" width="24.4" height="24.65" shape-rendering="crispEdges"/><rect fill="#24222f" x="256.2" y="416.3" width="24.4" height="24.65" shape-rendering="crispEdges"/><rect fill="#24222f" x="280.6" y="416.3" width="73.2" height="24.65" shape-rendering="crispEdges"/><rect fill="#24222f" x="353.8" y="416.3" width="48.8" height="24.65" shape-rendering="crispEdges"/><rect fill="#24222f" x="402.6" y="416.3" width="24.4" height="24.65" shape-rendering="crispEdges"/><rect fill="#24222f" x="427" y="416.3" width="341.6" height="24.65" shape-rendering="crispEdges"/><rect fill="#24222f" x="768.6" y="416.3" width="170.8" height="24.65" shape-rendering="crispEdges"/><rect fill="#1c1b26" x="939.4" y="416.3" width="12.2" height="24.65" shape-rendering="crispEdges"/><rect fill="#1c1b26" x="951.6" y="416.3" width="24.4" height="24.65" shape-rendering="crispEdges"/><rect fill="#24222f" x="0" y="440.7" width="61" height="24.65" shape-rendering="crispEdges"/><rect fill="#24222f" x="61" y="440.7" width="12.2" height="24.65" shape-rendering="crispEdges"/><rect fill="#1c1b26" x="73.2" y="440.7" width="24.4" height="24.65" shape-rendering="crispEdges"/><rect fill="#24222f" x="97.6" y="440.7" width="24.4" height="24.65" shape-rendering="crispEdges"/><rect fill="#24222f" x="122" y="440.7" width="109.8" height="24.65" shape-rendering="crispEdges"/><rect fill="#24222f" x="231.8" y="440.7" width="24.4" height="24.65" shape-rendering="crispEdges"/><rect fill="#24222f" x="256.2" y="440.7" width="61" height="24.65" shape-rendering="crispEdges"/><rect fill="#24222f" x="317.2" y="440.7" width="61" height="24.65" shape-rendering="crispEdges"/><rect fill="#24222f" x="378.2" y="440.7" width="24.4" height="24.65" shape-rendering="crispEdges"/><rect fill="#24222f" x="402.6" y="440.7" width="24.4" height="24.65" shape-rendering="crispEdges"/><rect fill="#24222f" x="427" y="440.7" width="341.6" height="24.65" shape-rendering="crispEdges"/><rect fill="#24222f" x="768.6" y="440.7" width="48.8" height="24.65" shape-rendering="crispEdges"/><rect fill="#24222f" x="817.4" y="440.7" width="73.2" height="24.65" shape-rendering="crispEdges"/><rect fill="#24222f" x="890.6" y="440.7" width="48.8" height="24.65" shape-rendering="crispEdges"/><rect fill="#1c1b26" x="939.4" y="440.7" width="12.2" height="24.65" shape-rendering="crispEdges"/><rect fill="#1c1b26" x="951.6" y="440.7" width="24.4" height="24.65" shape-rendering="crispEdges"/><rect fill="#24222f" x="0" y="465.1" width="61" height="24.65" shape-rendering="crispEdges"/><rect fill="#24222f" x="61" y="465.1" width="12.2" height="24.65" shape-rendering="crispEdges"/><rect fill="#1c1b26" x="73.2" y="465.1" width="24.4" height="24.65" shape-rendering="crispEdges"/><rect fill="#24222f" x="97.6" y="465.1" width="24.4" height="24.65" shape-rendering="crispEdges"/><rect fill="#24222f" x="122" y="465.1" width="109.8" height="24.65" shape-rendering="crispEdges"/><rect fill="#24222f" x="231.8" y="465.1" width="24.4" height="24.65" shape-rendering="crispEdges"/><rect fill="#24222f" x="256.2" y="465.1" width="61" height="24.65" shape-rendering="crispEdges"/><rect fill="#24222f" x="317.2" y="465.1" width="85.4" height="24.65" shape-rendering="crispEdges"/><rect fill="#24222f" x="402.6" y="465.1" width="24.4" height="24.65" shape-rendering="crispEdges"/><rect fill="#24222f" x="427" y="465.1" width="341.6" height="24.65" shape-rendering="crispEdges"/><rect fill="#24222f" x="768.6" y="465.1" width="170.8" height="24.65" shape-rendering="crispEdges"/><rect fill="#1c1b26" x="939.4" y="465.1" width="12.2" height="24.65" shape-rendering="crispEdges"/><rect fill="#1c1b26" x="951.6" y="465.1" width="24.4" height="24.65" shape-rendering="crispEdges"/><rect fill="#24222f" x="0" y="489.5" width="61" height="24.65" shape-rendering="crispEdges"/><rect fill="#24222f" x="61" y="489.5" width="12.2" height="24.65" shape-rendering="crispEdges"/><rect fill="#1c1b26" x="73.2" y="489.5" width="866.2" height="24.65" shape-rendering="crispEdges"/><rect fill="#1c1b26" x="939.4" y="489.5" width="12.2" height="24.65" shape-rendering="crispEdges"/><rect fill="#1c1b26" x="951.6" y="489.5" width="24.4" height="24.65" shape-rendering="crispEdges"/><rect fill="#24222f" x="0" y="513.9" width="61" height="24.65" shape-rendering="crispEdges"/><rect fill="#24222f" x="61" y="513.9" width="12.2" height="24.65" shape-rendering="crispEdges"/><rect fill="#1c1b26" x="73.2" y="513.9" width="24.4" height="24.65" shape-rendering="crispEdges"/><rect fill="#f3a87c" x="97.6" y="513.9" width="414.8" height="24.65" shape-rendering="crispEdges"/><rect fill="#1c1b26" x="512.4" y="513.9" width="12.2" height="24.65" shape-rendering="crispEdges"/><rect fill="#24222f" x="524.6" y="513.9" width="414.8" height="24.65" shape-rendering="crispEdges"/><rect fill="#1c1b26" x="939.4" y="513.9" width="12.2" height="24.65" shape-rendering="crispEdges"/><rect fill="#1c1b26" x="951.6" y="513.9" width="24.4" height="24.65" shape-rendering="crispEdges"/><rect fill="#24222f" x="0" y="538.3" width="61" height="24.65" shape-rendering="crispEdges"/><rect fill="#24222f" x="61" y="538.3" width="12.2" height="24.65" shape-rendering="crispEdges"/><rect fill="#1c1b26" x="73.2" y="538.3" width="902.8" height="24.65" shape-rendering="crispEdges"/><rect fill="#24222f" x="0" y="562.7" width="976" height="24.65" shape-rendering="crispEdges"/>
    <g class="terminal-matrix">
    <text class="terminal-r2" x="12.2" y="20" textLength="73.2" clip-path="url(#terminal-line-0)">cuanta</text><text class="terminal-r3" x="134.2" y="20" textLength="85.4" clip-path="url(#terminal-line-0)">&#160;Stack&#160;</text><text class="terminal-r4" x="219.6" y="20" textLength="146.4" clip-path="url(#terminal-line-0)">python&#160;3.12&#160;</text><text class="terminal-r3" x="390.4" y="20" textLength="158.6" clip-path="url(#terminal-line-0)">&#160;Verify&#160;tier&#160;</text><text class="terminal-r4" x="549" y="20" textLength="85.4" clip-path="url(#terminal-line-0)">strong&#160;</text><text class="terminal-r6" x="646.6" y="20" textLength="24.4" clip-path="url(#terminal-line-0)">✓&#160;</text><text class="terminal-r4" x="671" y="20" textLength="73.2" clip-path="url(#terminal-line-0)">claude</text><text class="terminal-r3" x="744.2" y="20" textLength="85.4" clip-path="url(#terminal-line-0)">&#160;&#160;ready</text><text class="terminal-r1" x="976" y="20" textLength="12.2" clip-path="url(#terminal-line-0)">
</text><text class="terminal-r3" x="134.2" y="44.4" textLength="85.4" clip-path="url(#terminal-line-1)">&#160;Graph&#160;</text><text class="terminal-r4" x="219.6" y="44.4" textLength="48.8" clip-path="url(#terminal-line-1)">cli&#160;</text><text class="terminal-r3" x="292.8" y="44.4" textLength="85.4" clip-path="url(#terminal-line-1)">&#160;Forge&#160;</text><text class="terminal-r4" x="378.2" y="44.4" textLength="122" clip-path="url(#terminal-line-1)">installed&#160;</text><text class="terminal-r3" x="646.6" y="44.4" textLength="24.4" clip-path="url(#terminal-line-1)">–&#160;</text><text class="terminal-r4" x="671" y="44.4" textLength="61" clip-path="url(#terminal-line-1)">codex</text><text class="terminal-r3" x="732" y="44.4" textLength="109.8" clip-path="url(#terminal-line-1)">&#160;&#160;missing</text><text class="terminal-r1" x="976" y="44.4" textLength="12.2" clip-path="url(#terminal-line-1)">
</text><text class="terminal-r3" x="646.6" y="68.8" textLength="24.4" clip-path="url(#terminal-line-2)">–&#160;</text><text class="terminal-r4" x="671" y="68.8" textLength="97.6" clip-path="url(#terminal-line-2)">opencode</text><text class="terminal-r3" x="768.6" y="68.8" textLength="109.8" clip-path="url(#terminal-line-2)">&#160;&#160;missing</text><text class="terminal-r1" x="976" y="68.8" textLength="12.2" clip-path="url(#terminal-line-2)">
</text><text class="terminal-r6" x="646.6" y="93.2" textLength="24.4" clip-path="url(#terminal-line-3)">✓&#160;</text><text class="terminal-r4" x="671" y="93.2" textLength="97.6" clip-path="url(#terminal-line-3)">Listener</text><text class="terminal-r3" x="768.6" y="93.2" textLength="48.8" clip-path="url(#terminal-line-3)">&#160;&#160;on</text><text class="terminal-r1" x="976" y="93.2" textLength="12.2" clip-path="url(#terminal-line-3)">
</text><text class="terminal-r7" x="0" y="117.6" textLength="976" clip-path="url(#terminal-line-4)">────────────────────────────────────────────────────────────────────────────────</text><text class="terminal-r1" x="976" y="117.6" textLength="12.2" clip-path="url(#terminal-line-4)">
</text><text class="terminal-r7" x="61" y="142" textLength="12.2" clip-path="url(#terminal-line-5)">│</text><text class="terminal-r1" x="976" y="142" textLength="12.2" clip-path="url(#terminal-line-5)">
</text><text class="terminal-r2" x="24.4" y="166.4" textLength="12.2" clip-path="url(#terminal-line-6)">⌂</text><text class="terminal-r7" x="61" y="166.4" textLength="12.2" clip-path="url(#terminal-line-6)">│</text><text class="terminal-r1" x="976" y="166.4" textLength="12.2" clip-path="url(#terminal-line-6)">
</text><text class="terminal-r5" x="24.4" y="190.8" textLength="12.2" clip-path="url(#terminal-line-7)">✓</text><text class="terminal-r7" x="61" y="190.8" textLength="12.2" clip-path="url(#terminal-line-7)">│</text><text class="terminal-r2" x="122" y="190.8" textLength="85.4" clip-path="url(#terminal-line-7)">Project</text><text class="terminal-r1" x="976" y="190.8" textLength="12.2" clip-path="url(#terminal-line-7)">
</text><text class="terminal-r5" x="24.4" y="215.2" textLength="12.2" clip-path="url(#terminal-line-8)">✎</text><text class="terminal-r7" x="61" y="215.2" textLength="12.2" clip-path="url(#terminal-line-8)">│</text><text class="terminal-r3" x="122" y="215.2" textLength="146.4" clip-path="url(#terminal-line-8)">Name&#160;&#160;&#160;&#160;&#160;&#160;&#160;&#160;</text><text class="terminal-r5" x="268.4" y="215.2" textLength="48.8" clip-path="url(#terminal-line-8)">shop</text><text class="terminal-r1" x="976" y="215.2" textLength="12.2" clip-path="url(#terminal-line-8)">
</text><text class="terminal-r5" x="24.4" y="239.6" textLength="12.2" clip-path="url(#terminal-line-9)">▦</text><text class="terminal-r7" x="61" y="239.6" textLength="12.2" clip-path="url(#terminal-line-9)">│</text><text class="terminal-r3" x="122" y="239.6" textLength="146.4" clip-path="url(#terminal-line-9)">Stack&#160;&#160;&#160;&#160;&#160;&#160;&#160;</text><text class="terminal-r5" x="268.4" y="239.6" textLength="134.2" clip-path="url(#terminal-line-9)">python&#160;3.12</text><text class="terminal-r1" x="976" y="239.6" textLength="12.2" clip-path="url(#terminal-line-9)">
</text><text class="terminal-r5" x="24.4" y="264" textLength="12.2" clip-path="url(#terminal-line-10)">≣</text><text class="terminal-r7" x="61" y="264" textLength="12.2" clip-path="url(#terminal-line-10)">│</text><text class="terminal-r3" x="122" y="264" textLength="146.4" clip-path="url(#terminal-line-10)">Verify&#160;tier&#160;</text><text class="terminal-r5" x="268.4" y="264" textLength="73.2" clip-path="url(#terminal-line-10)">strong</text><text class="terminal-r1" x="976" y="264" textLength="12.2" clip-path="url(#terminal-line-10)">
</text><text class="terminal-r5" x="24.4" y="288.4" textLength="12.2" clip-path="url(#terminal-line-11)">◆</text><text class="terminal-r7" x="61" y="288.4" textLength="12.2" clip-path="url(#terminal-line-11)">│</text><text class="terminal-r3" x="122" y="288.4" textLength="146.4" clip-path="url(#terminal-line-11)">Evidence&#160;&#160;&#160;&#160;</text><text class="terminal-r5" x="268.4" y="288.4" textLength="158.6" clip-path="url(#terminal-line-11)">pytest&#160;+&#160;mypy</text><text class="terminal-r1" x="976" y="288.4" textLength="12.2" clip-path="url(#terminal-line-11)">
</text><text class="terminal-r5" x="24.4" y="312.8" textLength="12.2" clip-path="url(#terminal-line-12)">✚</text><text class="terminal-r7" x="61" y="312.8" textLength="12.2" clip-path="url(#terminal-line-12)">│</text><text class="terminal-r3" x="122" y="312.8" textLength="146.4" clip-path="url(#terminal-line-12)">Graph&#160;&#160;&#160;&#160;&#160;&#160;&#160;</text><text class="terminal-r5" x="268.4" y="312.8" textLength="36.6" clip-path="url(#terminal-line-12)">cli</text><text class="terminal-r8" x="939.4" y="312.8" textLength="12.2" clip-path="url(#terminal-line-12)">▆</text><text class="terminal-r1" x="976" y="312.8" textLength="12.2" clip-path="url(#terminal-line-12)">
</text><text class="terminal-r5" x="24.4" y="337.2" textLength="12.2" clip-path="url(#terminal-line-13)">✱</text><text class="terminal-r7" x="61" y="337.2" textLength="12.2" clip-path="url(#terminal-line-13)">│</text><text class="terminal-r3" x="122" y="337.2" textLength="146.4" clip-path="url(#terminal-line-13)">Forge&#160;&#160;&#160;&#160;&#160;&#160;&#160;</text><text class="terminal-r5" x="268.4" y="337.2" textLength="109.8" clip-path="url(#terminal-line-13)">installed</text><text class="terminal-r1" x="976" y="337.2" textLength="12.2" clip-path="url(#terminal-line-13)">
</text><text class="terminal-r5" x="24.4" y="361.6" textLength="12.2" clip-path="url(#terminal-line-14)">◇</text><text class="terminal-r7" x="61" y="361.6" textLength="12.2" clip-path="url(#terminal-line-14)">│</text><text class="terminal-r3" x="122" y="361.6" textLength="146.4" clip-path="url(#terminal-line-14)">Files&#160;&#160;&#160;&#160;&#160;&#160;&#160;</text><text class="terminal-r5" x="268.4" y="361.6" textLength="61" clip-path="url(#terminal-line-14)">1,284</text><text class="terminal-r1" x="976" y="361.6" textLength="12.2" clip-path="url(#terminal-line-14)">
</text><text class="terminal-r7" x="61" y="386" textLength="12.2" clip-path="url(#terminal-line-15)">│</text><text class="terminal-r1" x="976" y="386" textLength="12.2" clip-path="url(#terminal-line-15)">
</text><text class="terminal-r7" x="61" y="410.4" textLength="12.2" clip-path="url(#terminal-line-16)">│</text><text class="terminal-r1" x="976" y="410.4" textLength="12.2" clip-path="url(#terminal-line-16)">
</text><text class="terminal-r7" x="61" y="434.8" textLength="12.2" clip-path="url(#terminal-line-17)">│</text><text class="terminal-r9" x="256.2" y="434.8" textLength="24.4" clip-path="url(#terminal-line-17)">!&#160;</text><text class="terminal-r4" x="280.6" y="434.8" textLength="73.2" clip-path="url(#terminal-line-17)">engine</text><text class="terminal-r1" x="976" y="434.8" textLength="12.2" clip-path="url(#terminal-line-17)">
</text><text class="terminal-r7" x="61" y="459.2" textLength="12.2" clip-path="url(#terminal-line-18)">│</text><text class="terminal-r2" x="122" y="459.2" textLength="109.8" clip-path="url(#terminal-line-18)">Next&#160;step</text><text class="terminal-r4" x="256.2" y="459.2" textLength="61" clip-path="url(#terminal-line-18)">codex</text><text class="terminal-r5" x="317.2" y="459.2" textLength="61" clip-path="url(#terminal-line-18)">&#160;&#160;not</text><text class="terminal-r10" x="427" y="459.2" textLength="341.6" clip-path="url(#terminal-line-18)">npm&#160;install&#160;-g&#160;@openai/codex</text><text class="terminal-r11" x="817.4" y="459.2" textLength="73.2" clip-path="url(#terminal-line-18)">&#160;Copy&#160;</text><text class="terminal-r1" x="976" y="459.2" textLength="12.2" clip-path="url(#terminal-line-18)">
</text><text class="terminal-r7" x="61" y="483.6" textLength="12.2" clip-path="url(#terminal-line-19)">│</text><text class="terminal-r5" x="256.2" y="483.6" textLength="61" clip-path="url(#terminal-line-19)">found</text><text class="terminal-r1" x="976" y="483.6" textLength="12.2" clip-path="url(#terminal-line-19)">
</text><text class="terminal-r7" x="61" y="508" textLength="12.2" clip-path="url(#terminal-line-20)">│</text><text class="terminal-r1" x="976" y="508" textLength="12.2" clip-path="url(#terminal-line-20)">
</text><text class="terminal-r7" x="61" y="532.4" textLength="12.2" clip-path="url(#terminal-line-21)">│</text><text class="terminal-r1" x="976" y="532.4" textLength="12.2" clip-path="url(#terminal-line-21)">
</text><text class="terminal-r7" x="61" y="556.8" textLength="12.2" clip-path="url(#terminal-line-22)">│</text><text class="terminal-r1" x="976" y="556.8" textLength="12.2" clip-path="url(#terminal-line-22)">
</text>
    </g>
    </g>
</svg>
