<svg class="rich-terminal" viewBox="0 0 994 635.5999999999999" xmlns="http://www.w3.org/2000/svg">
    <!-- Generated with Rich https://www.textualize.io -->
    <style>

    @font-face {
        font-family: "Fira Code";
        src: local("FiraCode-Regular"),
                url("https://cdnjs.cloudflare.com/ajax/libs/firacode/6.2.0/woff2/FiraCode-Regular.woff2") format("woff2"),
                url("https://cdnjs.cloudflare.com/ajax/libs/firacode/6.2.0/woff/FiraCode-Regular.woff") format("woff");
        font-style: normal;
        font-weight: 400;
    }
    @font-face {
        font-family: "Fira Code";
        src: local("FiraCode-Bold"),
                url("https://cdnjs.cloudflare.com/ajax/libs/firacode/6.2.0/woff2/FiraCode-Bold.woff2") format("woff2"),
                url("https://cdnjs.cloudflare.com/ajax/libs/firacode/6.2.0/woff/FiraCode-Bold.woff") format("woff");
        font-style: bold;
        font-weight: 700;
    }

    .terminal-matrix {
        font-family: Fira Code, monospace;
        font-size: 20px;
        line-height: 24.4px;
        font-variant-east-asian: full-width;
    }

    .terminal-title {
        font-size: 18px;
        font-weight: bold;
        font-family: arial;
    }

    .terminal-r1 { fill: #c5c8c6 }
.terminal-r2 { fill: #f3a87c;font-weight: bold }
.terminal-r3 { fill: #9aa0b8 }
.terminal-r4 { fill: #f6e3d4;font-weight: bold }
.terminal-r5 { fill: #9fd8a0 }
.terminal-r6 { fill: #f6e3d4 }
.terminal-r7 { fill: #2e2c3b }
.terminal-r8 { fill: #ca8e6d }
.terminal-r9 { fill: #f3a87c }
.terminal-r10 { fill: #624a46 }
.terminal-r11 { fill: #6a4f49 }
.terminal-r12 { fill: #684e48 }
.terminal-r13 { fill: #8e6656 }
.terminal-r14 { fill: #1c1b26 }
.terminal-r15 { fill: #f2a7c3 }
.terminal-r16 { fill: #f4a87c;font-weight: bold }
    </style>

    <defs>
    <clipPath id="terminal-clip-terminal">
      <rect x="0" y="0" width="975.0" height="584.5999999999999" />
    </clipPath>
    <clipPath id="terminal-line-0">
    <rect x="0" y="1.5" width="976" height="24.65"/>
            </clipPath>
<clipPath id="terminal-line-1">
    <rect x="0" y="25.9" width="976" height="24.65"/>
            </clipPath>
<clipPath id="terminal-line-2">
    <rect x="0" y="50.3" width="976" height="24.65"/>
            </clipPath>
<clipPath id="terminal-line-3">
    <rect x="0" y="74.7" width="976" height="24.65"/>
            </clipPath>
<clipPath id="terminal-line-4">
    <rect x="0" y="99.1" width="976" height="24.65"/>
            </clipPath>
<clipPath id="terminal-line-5">
    <rect x="0" y="123.5" width="976" height="24.65"/>
            </clipPath>
<clipPath id="terminal-line-6">
    <rect x="0" y="147.9" width="976" height="24.65"/>
            </clipPath>
<clipPath id="terminal-line-7">
    <rect x="0" y="172.3" width="976" height="24.65"/>
            </clipPath>
<clipPath id="terminal-line-8">
    <rect x="0" y="196.7" width="976" height="24.65"/>
            </clipPath>
<clipPath id="terminal-line-9">
    <rect x="0" y="221.1" width="976" height="24.65"/>
            </clipPath>
<clipPath id="terminal-line-10">
    <rect x="0" y="245.5" width="976" height="24.65"/>
            </clipPath>
<clipPath id="terminal-line-11">
    <rect x="0" y="269.9" width="976" height="24.65"/>
            </clipPath>
<clipPath id="terminal-line-12">
    <rect x="0" y="294.3" width="976" height="24.65"/>
            </clipPath>
<clipPath id="terminal-line-13">
    <rect x="0" y="318.7" width="976" height="24.65"/>
            </clipPath>
<clipPath id="terminal-line-14">
    <rect x="0" y="343.1" width="976" height="24.65"/>
            </clipPath>
<clipPath id="terminal-line-15">
    <rect x="0" y="367.5" width="976" height="24.65"/>
            </clipPath>
<clipPath id="terminal-line-16">
    <rect x="0" y="391.9" width="976" height="24.65"/>
            </clipPath>
<clipPath id="terminal-line-17">
    <rect x="0" y="416.3" width="976" height="24.65"/>
            </clipPath>
<clipPath id="terminal-line-18">
    <rect x="0" y="440.7" width="976" height="24.65"/>
            </clipPath>
<clipPath id="terminal-line-19">
    <rect x="0" y="465.1" width="976" height="24.65"/>
            </clipPath>
<clipPath id="terminal-line-20">
    <rect x="0" y="489.5" width="976" height="24.65"/>
            </clipPath>
<clipPath id="terminal-line-21">
    <rect x="0" y="513.9" width="976" height="24.65"/>
            </clipPath>
<clipPath id="terminal-line-22">
    <rect x="0" y="538.3" width="976" height="24.65"/>
            </clipPath>
    </defs>

    <rect fill="#292929" stroke="rgba(255,255,255,0.35)" stroke-width="1" x="1" y="1" width="992" height="633.6" rx="8"/><text class="terminal-title" fill="#c5c8c6" text-anchor="middle" x="496" y="27">cuanta</text>
            <g transform="translate(26,22)">
            <circle cx="0" cy="0" r="7" fill="#ff5f57"/>
            <circle cx="22" cy="0" r="7" fill="#febc2e"/>
            <circle cx="44" cy="0" r="7" fill="#28c840"/>
            </g>
        
    <g transform="translate(9, 41)" clip-path="url(#terminal-clip-terminal)">
    <rect fill="#24222f" x="0" y="1.5" width="12.2" height="24.65" shape-rendering="crispEdges"/><rect fill="#24222f" x="12.2" y="1.5" width="73.2" height="24.65" shape-rendering="crispEdges"/><rect fill="#24222f" x="85.4" y="1.5" width="48.8" height="24.65" shape-rendering="crispEdges"/><rect fill="#24222f" x="134.2" y="1.5" width="85.4" height="24.65" shape-rendering="crispEdges"/><rect fill="#24222f" x="219.6" y="1.5" width="146.4" height="24.65" shape-rendering="crispEdges"/><rect fill="#24222f" x="366" y="1.5" width="280.6" height="24.65" shape-rendering="crispEdges"/><rect fill="#24222f" x="646.6" y="1.5" width="24.4" height="24.65" shape-rendering="crispEdges"/><rect fill="#24222f" x="671" y="1.5" width="73.2" height="24.65" shape-rendering="crispEdges"/><rect fill="#24222f" x="744.2" y="1.5" width="85.4" height="24.65" shape-rendering="crispEdges"/><rect fill="#24222f" x="829.6" y="1.5" width="146.4" height="24.65" shape-rendering="crispEdges"/><rect fill="#24222f" x="0" y="25.9" width="134.2" height="24.65" shape-rendering="crispEdges"/><rect fill="#24222f" x="134.2" y="25.9" width="280.6" height="24.65" shape-rendering="crispEdges"/><rect fill="#24222f" x="414.8" y="25.9" width="85.4" height="24.65" shape-rendering="crispEdges"/><rect fill="#24222f" x="500.2" y="25.9" width="146.4" height="24.65" shape-rendering="crispEdges"/><rect fill="#24222f" x="646.6" y="25.9" width="24.4" height="24.65" shape-rendering="crispEdges"/><rect fill="#24222f" x="671" y="25.9" width="61" height="24.65" shape-rendering="crispEdges"/><rect fill="#24222f" x="732" y="25.9" width="85.4" height="24.65" shape-rendering="crispEdges"/><rect fill="#24222f" x="817.4" y="25.9" width="158.6" height="24.65" shape-rendering="crispEdges"/><rect fill="#24222f" x="0" y="50.3" width="134.2" height="24.65" shape-rendering="crispEdges"/><rect fill="#24222f" x="134.2" y="50.3" width="85.4" height="24.65" shape-rendering="crispEdges"/><rect fill="#24222f" x="219.6" y="50.3" width="48.8" height="24.65" shape-rendering="crispEdges"/><rect fill="#24222f" x="268.4" y="50.3" width="24.4" height="24.65" shape-rendering="crispEdges"/><rect fill="#24222f" x="292.8" y="50.3" width="85.4" height="24.65" shape-rendering="crispEdges"/><rect fill="#24222f" x="378.2" y="50.3" width="122" height="24.65" shape-rendering="crispEdges"/><rect fill="#24222f" x="500.2" y="50.3" width="146.4" height="24.65" shape-rendering="crispEdges"/><rect fill="#24222f" x="646.6" y="50.3" width="24.4" height="24.65" shape-rendering="crispEdges"/><rect fill="#24222f" x="671" y="50.3" width="97.6" height="24.65" shape-rendering="crispEdges"/><rect fill="#24222f" x="768.6" y="50.3" width="85.4" height="24.65" shape-rendering="crispEdges"/><rect fill="#24222f" x="854" y="50.3" width="122" height="24.65" shape-rendering="crispEdges"/><rect fill="#24222f" x="0" y="74.7" width="134.2" height="24.65" shape-rendering="crispEdges"/><rect fill="#24222f" x="134.2" y="74.7" width="512.4" height="24.65" shape-rendering="crispEdges"/><rect fill="#24222f" x="646.6" y="74.7" width="24.4" height="24.65" shape-rendering="crispEdges"/><rect fill="#24222f" x="671" y="74.7" width="85.4" height="24.65" shape-rendering="crispEdges"/><rect fill="#24222f" x="756.4" y="74.7" width="97.6" height="24.65" shape-rendering="crispEdges"/><rect fill="#24222f" x="854" y="74.7" width="122" height="24.65" shape-rendering="crispEdges"/><rect fill="#24222f" x="0" y="99.1" width="976" height="24.65" shape-rendering="crispEdges"/><rect fill="#24222f" x="0" y="123.5" width="61" height="24.65" shape-rendering="crispEdges"/><rect fill="#24222f" x="61" y="123.5" width="12.2" height="24.65" shape-rendering="crispEdges"/><rect fill="#1c1b26" x="73.2" y="123.5" width="902.8" height="24.65" shape-rendering="crispEdges"/><rect fill="#24222f" x="0" y="147.9" width="12.2" height="24.65" shape-rendering="crispEdges"/><rect fill="#4d3c3e" x="12.2" y="147.9" width="12.2" height="24.65" shape-rendering="crispEdges"/><rect fill="#4d3c3e" x="24.4" y="147.9" width="12.2" height="24.65" shape-rendering="crispEdges"/><rect fill="#4d3c3e" x="36.6" y="147.9" width="12.2" height="24.65" shape-rendering="crispEdges"/><rect fill="#24222f" x="48.8" y="147.9" width="12.2" height="24.65" shape-rendering="crispEdges"/><rect fill="#24222f" x="61" y="147.9" width="12.2" height="24.65" shape-rendering="crispEdges"/><rect fill="#1c1b26" x="73.2" y="147.9" width="24.4" height="24.65" shape-rendering="crispEdges"/><rect fill="#24222f" x="97.6" y="147.9" width="24.4" height="24.65" shape-rendering="crispEdges"/><rect fill="#24222f" x="122" y="147.9" width="109.8" height="24.65" shape-rendering="crispEdges"/><rect fill="#24222f" x="231.8" y="147.9" width="97.6" height="24.65" shape-rendering="crispEdges"/><rect fill="#24222f" x="329.4" y="147.9" width="170.8" height="24.65" shape-rendering="crispEdges"/><rect fill="#24222f" x="500.2" y="147.9" width="85.4" height="24.65" shape-rendering="crispEdges"/><rect fill="#24222f" x="585.6" y="147.9" width="158.6" height="24.65" shape-rendering="crispEdges"/><rect fill="#24222f" x="744.2" y="147.9" width="170.8" height="24.65" shape-rendering="crispEdges"/><rect fill="#24222f" x="915" y="147.9" width="24.4" height="24.65" shape-rendering="crispEdges"/><rect fill="#1c1b26" x="939.4" y="147.9" width="12.2" height="24.65" shape-rendering="crispEdges"/><rect fill="#1c1b26" x="951.6" y="147.9" width="24.4" height="24.65" shape-rendering="crispEdges"/><rect fill="#24222f" x="0" y="172.3" width="24.4" height="24.65" shape-rendering="crispEdges"/><rect fill="#24222f" x="24.4" y="172.3" width="12.2" height="24.65" shape-rendering="crispEdges"/><rect fill="#24222f" x="36.6" y="172.3" width="24.4" height="24.65" shape-rendering="crispEdges"/><rect fill="#24222f" x="61" y="172.3" width="12.2" height="24.65" shape-rendering="crispEdges"/><rect fill="#1c1b26" x="73.2" y="172.3" width="24.4" height="24.65" shape-rendering="crispEdges"/><rect fill="#24222f" x="97.6" y="172.3" width="24.4" height="24.65" shape-rendering="crispEdges"/><rect fill="#614945" x="122" y="172.3" width="109.8" height="24.65" shape-rendering="crispEdges"/><rect fill="#614945" x="231.8" y="172.3" width="97.6" height="24.65" shape-rendering="crispEdges"/><rect fill="#614945" x="329.4" y="172.3" width="170.8" height="24.65" shape-rendering="crispEdges"/><rect fill="#614945" x="500.2" y="172.3" width="85.4" height="24.65" shape-rendering="crispEdges"/><rect fill="#614945" x="585.6" y="172.3" width="158.6" height="24.65" shape-rendering="crispEdges"/><rect fill="#614945" x="744.2" y="172.3" width="170.8" height="24.65" shape-rendering="crispEdges"/><rect fill="#24222f" x="915" y="172.3" width="24.4" height="24.65" shape-rendering="crispEdges"/><rect fill="#1c1b26" x="939.4" y="172.3" width="12.2" height="24.65" shape-rendering="crispEdges"/><rect fill="#1c1b26" x="951.6" y="172.3" width="24.4" height="24.65" shape-rendering="crispEdges"/><rect fill="#24222f" x="0" y="196.7" width="24.4" height="24.65" shape-rendering="crispEdges"/><rect fill="#24222f" x="24.4" y="196.7" width="12.2" height="24.65" shape-rendering="crispEdges"/><rect fill="#24222f" x="36.6" y="196.7" width="24.4" height="24.65" shape-rendering="crispEdges"/><rect fill="#24222f" x="61" y="196.7" width="12.2" height="24.65" shape-rendering="crispEdges"/><rect fill="#1c1b26" x="73.2" y="196.7" width="24.4" height="24.65" shape-rendering="crispEdges"/><rect fill="#24222f" x="97.6" y="196.7" width="24.4" height="24.65" shape-rendering="crispEdges"/><rect fill="#24222f" x="122" y="196.7" width="109.8" height="24.65" shape-rendering="crispEdges"/><rect fill="#24222f" x="231.8" y="196.7" width="97.6" height="24.65" shape-rendering="crispEdges"/><rect fill="#24222f" x="329.4" y="196.7" width="170.8" height="24.65" shape-rendering="crispEdges"/><rect fill="#24222f" x="500.2" y="196.7" width="85.4" height="24.65" shape-rendering="crispEdges"/><rect fill="#24222f" x="585.6" y="196.7" width="158.6" height="24.65" shape-rendering="crispEdges"/><rect fill="#24222f" x="744.2" y="196.7" width="170.8" height="24.65" shape-rendering="crispEdges"/><rect fill="#24222f" x="915" y="196.7" width="24.4" height="24.65" shape-rendering="crispEdges"/><rect fill="#1c1b26" x="939.4" y="196.7" width="12.2" height="24.65" shape-rendering="crispEdges"/><rect fill="#1c1b26" x="951.6" y="196.7" width="24.4" height="24.65" shape-rendering="crispEdges"/><rect fill="#24222f" x="0" y="221.1" width="24.4" height="24.65" shape-rendering="crispEdges"/><rect fill="#24222f" x="24.4" y="221.1" width="12.2" height="24.65" shape-rendering="crispEdges"/><rect fill="#24222f" x="36.6" y="221.1" width="24.4" height="24.65" shape-rendering="crispEdges"/><rect fill="#24222f" x="61" y="221.1" width="12.2" height="24.65" shape-rendering="crispEdges"/><rect fill="#1c1b26" x="73.2" y="221.1" width="24.4" height="24.65" shape-rendering="crispEdges"/><rect fill="#24222f" x="97.6" y="221.1" width="24.4" height="24.65" shape-rendering="crispEdges"/><rect fill="#1e1b28" x="122" y="221.1" width="109.8" height="24.65" shape-rendering="crispEdges"/><rect fill="#1e1b28" x="231.8" y="221.1" width="97.6" height="24.65" shape-rendering="crispEdges"/><rect fill="#1e1b28" x="329.4" y="221.1" width="170.8" height="24.65" shape-rendering="crispEdges"/><rect fill="#1e1b28" x="500.2" y="221.1" width="85.4" height="24.65" shape-rendering="crispEdges"/><rect fill="#1e1b28" x="585.6" y="221.1" width="158.6" height="24.65" shape-rendering="crispEdges"/><rect fill="#1e1b28" x="744.2" y="221.1" width="170.8" height="24.65" shape-rendering="crispEdges"/><rect fill="#24222f" x="915" y="221.1" width="24.4" height="24.65" shape-rendering="crispEdges"/><rect fill="#1c1b26" x="939.4" y="221.1" width="12.2" height="24.65" shape-rendering="crispEdges"/><rect fill="#1c1b26" x="951.6" y="221.1" width="24.4" height="24.65" shape-rendering="crispEdges"/><rect fill="#24222f" x="0" y="245.5" width="24.4" height="24.65" shape-rendering="crispEdges"/><rect fill="#24222f" x="24.4" y="245.5" width="12.2" height="24.65" shape-rendering="crispEdges"/><rect fill="#24222f" x="36.6" y="245.5" width="24.4" height="24.65" shape-rendering="crispEdges"/><rect fill="#24222f" x="61" y="245.5" width="12.2" height="24.65" shape-rendering="crispEdges"/><rect fill="#1c1b26" x="73.2" y="245.5" width="24.4" height="24.65" shape-rendering="crispEdges"/><rect fill="#24222f" x="97.6" y="245.5" width="841.8" height="24.65" shape-rendering="crispEdges"/><rect fill="#1c1b26" x="939.4" y="245.5" width="12.2" height="24.65" shape-rendering="crispEdges"/><rect fill="#1c1b26" x="951.6" y="245.5" width="24.4" height="24.65" shape-rendering="crispEdges"/><rect fill="#24222f" x="0" y="269.9" width="24.4" height="24.65" shape-rendering="crispEdges"/><rect fill="#24222f" x="24.4" y="269.9" width="12.2" height="24.65" shape-rendering="crispEdges"/><rect fill="#24222f" x="36.6" y="269.9" width="24.4" height="24.65" shape-rendering="crispEdges"/><rect fill="#24222f" x="61" y="269.9" width="12.2" height="24.65" shape-rendering="crispEdges"/><rect fill="#1c1b26" x="73.2" y="269.9" width="24.4" height="24.65" shape-rendering="crispEdges"/><rect fill="#24222f" x="97.6" y="269.9" width="841.8" height="24.65" shape-rendering="crispEdges"/><rect fill="#1c1b26" x="939.4" y="269.9" width="12.2" height="24.65" shape-rendering="crispEdges"/><rect fill="#1c1b26" x="951.6" y="269.9" width="24.4" height="24.65" shape-rendering="crispEdges"/><rect fill="#24222f" x="0" y="294.3" width="24.4" height="24.65" shape-rendering="crispEdges"/><rect fill="#24222f" x="24.4" y="294.3" width="12.2" height="24.65" shape-rendering="crispEdges"/><rect fill="#24222f" x="36.6" y="294.3" width="24.4" height="24.65" shape-rendering="crispEdges"/><rect fill="#24222f" x="61" y="294.3" width="12.2" height="24.65" shape-rendering="crispEdges"/><rect fill="#1c1b26" x="73.2" y="294.3" width="24.4" height="24.65" shape-rendering="crispEdges"/><rect fill="#24222f" x="97.6" y="294.3" width="24.4" height="24.65" shape-rendering="crispEdges"/><rect fill="#24222f" x="122" y="294.3" width="317.2" height="24.65" shape-rendering="crispEdges"/><rect fill="#24222f" x="439.2" y="294.3" width="500.2" height="24.65" shape-rendering="crispEdges"/><rect fill="#1c1b26" x="939.4" y="294.3" width="12.2" height="24.65" shape-rendering="crispEdges"/><rect fill="#1c1b26" x="951.6" y="294.3" width="24.4" height="24.65" shape-rendering="crispEdges"/><rect fill="#24222f" x="0" y="318.7" width="24.4" height="24.65" shape-rendering="crispEdges"/><rect fill="#24222f" x="24.4" y="318.7" width="12.2" height="24.65" shape-rendering="crispEdges"/><rect fill="#24222f" x="36.6" y="318.7" width="24.4" height="24.65" shape-rendering="crispEdges"/><rect fill="#24222f" x="61" y="318.7" width="12.2" height="24.65" shape-rendering="crispEdges"/><rect fill="#1c1b26" x="73.2" y="318.7" width="24.4" height="24.65" shape-rendering="crispEdges"/><rect fill="#24222f" x="97.6" y="318.7" width="24.4" height="24.65" shape-rendering="crispEdges"/><rect fill="#24222f" x="122" y="318.7" width="341.6" height="24.65" shape-rendering="crispEdges"/><rect fill="#24222f" x="463.6" y="318.7" width="122" height="24.65" shape-rendering="crispEdges"/><rect fill="#24222f" x="585.6" y="318.7" width="219.6" height="24.65" shape-rendering="crispEdges"/><rect fill="#24222f" x="805.2" y="318.7" width="109.8" height="24.65" shape-rendering="crispEdges"/><rect fill="#24222f" x="915" y="318.7" width="24.4" height="24.65" shape-rendering="crispEdges"/><rect fill="#1c1b26" x="939.4" y="318.7" width="12.2" height="24.65" shape-rendering="crispEdges"/><rect fill="#1c1b26" x="951.6" y="318.7" width="24.4" height="24.65" shape-rendering="crispEdges"/><rect fill="#24222f" x="0" y="343.1" width="24.4" height="24.65" shape-rendering="crispEdges"/><rect fill="#24222f" x="24.4" y="343.1" width="12.2" height="24.65" shape-rendering="crispEdges"/><rect fill="#24222f" x="36.6" y="343.1" width="24.4" height="24.65" shape-rendering="crispEdges"/><rect fill="#24222f" x="61" y="343.1" width="12.2" height="24.65" shape-rendering="crispEdges"/><rect fill="#1c1b26" x="73.2" y="343.1" width="24.4" height="24.65" shape-rendering="crispEdges"/><rect fill="#24222f" x="97.6" y="343.1" width="24.4" height="24.65" shape-rendering="crispEdges"/><rect fill="#24222f" x="122" y="343.1" width="341.6" height="24.65" shape-rendering="crispEdges"/><rect fill="#24222f" x="463.6" y="343.1" width="122" height="24.65" shape-rendering="crispEdges"/><rect fill="#24222f" x="585.6" y="343.1" width="219.6" height="24.65" shape-rendering="crispEdges"/><rect fill="#24222f" x="805.2" y="343.1" width="109.8" height="24.65" shape-rendering="crispEdges"/><rect fill="#24222f" x="915" y="343.1" width="24.4" height="24.65" shape-rendering="crispEdges"/><rect fill="#1c1b26" x="939.4" y="343.1" width="12.2" height="24.65" shape-rendering="crispEdges"/><rect fill="#1c1b26" x="951.6" y="343.1" width="24.4" height="24.65" shape-rendering="crispEdges"/><rect fill="#24222f" x="0" y="367.5" width="61" height="24.65" shape-rendering="crispEdges"/><rect fill="#24222f" x="61" y="367.5" width="12.2" height="24.65" shape-rendering="crispEdges"/><rect fill="#1c1b26" x="73.2" y="367.5" width="24.4" height="24.65" shape-rendering="crispEdges"/><rect fill="#24222f" x="97.6" y="367.5" width="24.4" height="24.65" shape-rendering="crispEdges"/><rect fill="#24222f" x="122" y="367.5" width="122" height="24.65" shape-rendering="crispEdges"/><rect fill="#24222f" x="244" y="367.5" width="109.8" height="24.65" shape-rendering="crispEdges"/><rect fill="#24222f" x="353.8" y="367.5" width="109.8" height="24.65" shape-rendering="crispEdges"/><rect fill="#24222f" x="463.6" y="367.5" width="122" height="24.65" shape-rendering="crispEdges"/><rect fill="#24222f" x="585.6" y="367.5" width="109.8" height="24.65" shape-rendering="crispEdges"/><rect fill="#24222f" x="695.4" y="367.5" width="109.8" height="24.65" shape-rendering="crispEdges"/><rect fill="#24222f" x="805.2" y="367.5" width="109.8" height="24.65" shape-rendering="crispEdges"/><rect fill="#24222f" x="915" y="367.5" width="24.4" height="24.65" shape-rendering="crispEdges"/><rect fill="#2e2c3b" x="939.4" y="367.5" width="12.2" height="24.65" shape-rendering="crispEdges"/><rect fill="#1c1b26" x="951.6" y="367.5" width="24.4" height="24.65" shape-rendering="crispEdges"/><rect fill="#24222f" x="0" y="391.9" width="61" height="24.65" shape-rendering="crispEdges"/><rect fill="#24222f" x="61" y="391.9" width="12.2" height="24.65" shape-rendering="crispEdges"/><rect fill="#1c1b26" x="73.2" y="391.9" width="24.4" height="24.65" shape-rendering="crispEdges"/><rect fill="#24222f" x="97.6" y="391.9" width="24.4" height="24.65" shape-rendering="crispEdges"/><rect fill="#24222f" x="122" y="391.9" width="280.6" height="24.65" shape-rendering="crispEdges"/><rect fill="#24222f" x="402.6" y="391.9" width="536.8" height="24.65" shape-rendering="crispEdges"/><rect fill="#2e2c3b" x="939.4" y="391.9" width="12.2" height="24.65" shape-rendering="crispEdges"/><rect fill="#1c1b26" x="951.6" y="391.9" width="24.4" height="24.65" shape-rendering="crispEdges"/><rect fill="#24222f" x="0" y="416.3" width="61" height="24.65" shape-rendering="crispEdges"/><rect fill="#24222f" x="61" y="416.3" width="12.2" height="24.65" shape-rendering="crispEdges"/><rect fill="#1c1b26" x="73.2" y="416.3" width="24.4" height="24.65" shape-rendering="crispEdges"/><rect fill="#24222f" x="97.6" y="416.3" width="24.4" height="24.65" shape-rendering="crispEdges"/><rect fill="#24222f" x="122" y="416.3" width="671" height="24.65" shape-rendering="crispEdges"/><rect fill="#24222f" x="793" y="416.3" width="146.4" height="24.65" shape-rendering="crispEdges"/><rect fill="#2e2c3b" x="939.4" y="416.3" width="12.2" height="24.65" shape-rendering="crispEdges"/><rect fill="#1c1b26" x="951.6" y="416.3" width="24.4" height="24.65" shape-rendering="crispEdges"/><rect fill="#24222f" x="0" y="440.7" width="61" height="24.65" shape-rendering="crispEdges"/><rect fill="#24222f" x="61" y="440.7" width="12.2" height="24.65" shape-rendering="crispEdges"/><rect fill="#1c1b26" x="73.2" y="440.7" width="24.4" height="24.65" shape-rendering="crispEdges"/><rect fill="#24222f" x="97.6" y="440.7" width="24.4" height="24.65" shape-rendering="crispEdges"/><rect fill="#24222f" x="122" y="440.7" width="146.4" height="24.65" shape-rendering="crispEdges"/><rect fill="#24222f" x="268.4" y="440.7" width="671" height="24.65" shape-rendering="crispEdges"/><rect fill="#2e2c3b" x="939.4" y="440.7" width="12.2" height="24.65" shape-rendering="crispEdges"/><rect fill="#1c1b26" x="951.6" y="440.7" width="24.4" height="24.65" shape-rendering="crispEdges"/><rect fill="#24222f" x="0" y="465.1" width="61" height="24.65" shape-rendering="crispEdges"/><rect fill="#24222f" x="61" y="465.1" width="12.2" height="24.65" shape-rendering="crispEdges"/><rect fill="#1c1b26" x="73.2" y="465.1" width="24.4" height="24.65" shape-rendering="crispEdges"/><rect fill="#24222f" x="97.6" y="465.1" width="841.8" height="24.65" shape-rendering="crispEdges"/><rect fill="#1c1b26" x="939.4" y="465.1" width="12.2" height="24.65" shape-rendering="crispEdges"/><rect fill="#1c1b26" x="951.6" y="465.1" width="24.4" height="24.65" shape-rendering="crispEdges"/><rect fill="#24222f" x="0" y="489.5" width="61" height="24.65" shape-rendering="crispEdges"/><rect fill="#24222f" x="61" y="489.5" width="12.2" height="24.65" shape-rendering="crispEdges"/><rect fill="#1c1b26" x="73.2" y="489.5" width="24.4" height="24.65" shape-rendering="crispEdges"/><rect fill="#24222f" x="97.6" y="489.5" width="24.4" height="24.65" shape-rendering="crispEdges"/><rect fill="#24222f" x="122" y="489.5" width="231.8" height="24.65" shape-rendering="crispEdges"/><rect fill="#24222f" x="353.8" y="489.5" width="36.6" height="24.65" shape-rendering="crispEdges"/><rect fill="#24222f" x="390.4" y="489.5" width="341.6" height="24.65" shape-rendering="crispEdges"/><rect fill="#24222f" x="732" y="489.5" width="207.4" height="24.65" shape-rendering="crispEdges"/><rect fill="#1c1b26" x="939.4" y="489.5" width="12.2" height="24.65" shape-rendering="crispEdges"/><rect fill="#1c1b26" x="951.6" y="489.5" width="24.4" height="24.65" shape-rendering="crispEdges"/><rect fill="#24222f" x="0" y="513.9" width="61" height="24.65" shape-rendering="crispEdges"/><rect fill="#24222f" x="61" y="513.9" width="12.2" height="24.65" shape-rendering="crispEdges"/><rect fill="#1c1b26" x="73.2" y="513.9" width="24.4" height="24.65" shape-rendering="crispEdges"/><rect fill="#24222f" x="97.6" y="513.9" width="24.4" height="24.65" shape-rendering="crispEdges"/><rect fill="#24222f" x="122" y="513.9" width="195.2" height="24.65" shape-rendering="crispEdges"/><rect fill="#24222f" x="317.2" y="513.9" width="622.2" height="24.65" shape-rendering="crispEdges"/><rect fill="#1c1b26" x="939.4" y="513.9" width="12.2" height="24.65" shape-rendering="crispEdges"/><rect fill="#1c1b26" x="951.6" y="513.9" width="24.4" height="24.65" shape-rendering="crispEdges"/><rect fill="#24222f" x="0" y="538.3" width="61" height="24.65" shape-rendering="crispEdges"/><rect fill="#24222f" x="61" y="538.3" width="12.2" height="24.65" shape-rendering="crispEdges"/><rect fill="#1c1b26" x="73.2" y="538.3" width="902.8" height="24.65" shape-rendering="crispEdges"/><rect fill="#24222f" x="0" y="562.7" width="36.6" height="24.65" shape-rendering="crispEdges"/><rect fill="#24222f" x="36.6" y="562.7" width="134.2" height="24.65" shape-rendering="crispEdges"/><rect fill="#24222f" x="170.8" y="562.7" width="805.2" height="24.65" shape-rendering="crispEdges"/>
    <g class="terminal-matrix">
    <text class="terminal-r2" x="12.2" y="20" textLength="73.2" clip-path="url(#terminal-line-0)">cuanta</text><text class="terminal-r3" x="134.2" y="20" textLength="85.4" clip-path="url(#terminal-line-0)">&#160;Stack&#160;</text><text class="terminal-r4" x="219.6" y="20" textLength="146.4" clip-path="url(#terminal-line-0)">python&#160;3.12&#160;</text><text class="terminal-r5" x="646.6" y="20" textLength="24.4" clip-path="url(#terminal-line-0)">✓&#160;</text><text class="terminal-r4" x="671" y="20" textLength="73.2" clip-path="url(#terminal-line-0)">claude</text><text class="terminal-r3" x="744.2" y="20" textLength="85.4" clip-path="url(#terminal-line-0)">&#160;&#160;listo</text><text class="terminal-r1" x="976" y="20" textLength="12.2" clip-path="url(#terminal-line-0)">
</text><text class="terminal-r3" x="134.2" y="44.4" textLength="280.6" clip-path="url(#terminal-line-1)">&#160;Nivel&#160;de&#160;verificación&#160;</text><text class="terminal-r4" x="414.8" y="44.4" textLength="85.4" clip-path="url(#terminal-line-1)">strong&#160;</text><text class="terminal-r3" x="646.6" y="44.4" textLength="24.4" clip-path="url(#terminal-line-1)">–&#160;</text><text class="terminal-r4" x="671" y="44.4" textLength="61" clip-path="url(#terminal-line-1)">codex</text><text class="terminal-r3" x="732" y="44.4" textLength="85.4" clip-path="url(#terminal-line-1)">&#160;&#160;falta</text><text class="terminal-r1" x="976" y="44.4" textLength="12.2" clip-path="url(#terminal-line-1)">
</text><text class="terminal-r3" x="134.2" y="68.8" textLength="85.4" clip-path="url(#terminal-line-2)">&#160;Grafo&#160;</text><text class="terminal-r4" x="219.6" y="68.8" textLength="48.8" clip-path="url(#terminal-line-2)">cli&#160;</text><text class="terminal-r3" x="292.8" y="68.8" textLength="85.4" clip-path="url(#terminal-line-2)">&#160;Forge&#160;</text><text class="terminal-r4" x="378.2" y="68.8" textLength="122" clip-path="url(#terminal-line-2)">instalado&#160;</text><text class="terminal-r3" x="646.6" y="68.8" textLength="24.4" clip-path="url(#terminal-line-2)">–&#160;</text><text class="terminal-r4" x="671" y="68.8" textLength="97.6" clip-path="url(#terminal-line-2)">opencode</text><text class="terminal-r3" x="768.6" y="68.8" textLength="85.4" clip-path="url(#terminal-line-2)">&#160;&#160;falta</text><text class="terminal-r1" x="976" y="68.8" textLength="12.2" clip-path="url(#terminal-line-2)">
</text><text class="terminal-r5" x="646.6" y="93.2" textLength="24.4" clip-path="url(#terminal-line-3)">✓&#160;</text><text class="terminal-r4" x="671" y="93.2" textLength="85.4" clip-path="url(#terminal-line-3)">Escucha</text><text class="terminal-r3" x="756.4" y="93.2" textLength="97.6" clip-path="url(#terminal-line-3)">&#160;&#160;activa</text><text class="terminal-r1" x="976" y="93.2" textLength="12.2" clip-path="url(#terminal-line-3)">
</text><text class="terminal-r7" x="0" y="117.6" textLength="976" clip-path="url(#terminal-line-4)">────────────────────────────────────────────────────────────────────────────────</text><text class="terminal-r1" x="976" y="117.6" textLength="12.2" clip-path="url(#terminal-line-4)">
</text><text class="terminal-r7" x="61" y="142" textLength="12.2" clip-path="url(#terminal-line-5)">│</text><text class="terminal-r1" x="976" y="142" textLength="12.2" clip-path="url(#terminal-line-5)">
</text><text class="terminal-r2" x="24.4" y="166.4" textLength="12.2" clip-path="url(#terminal-line-6)">⌂</text><text class="terminal-r7" x="61" y="166.4" textLength="12.2" clip-path="url(#terminal-line-6)">│</text><text class="terminal-r4" x="122" y="166.4" textLength="109.8" clip-path="url(#terminal-line-6)">&#160;Tipo&#160;&#160;&#160;&#160;</text><text class="terminal-r4" x="231.8" y="166.4" textLength="97.6" clip-path="url(#terminal-line-6)">&#160;Motor&#160;&#160;</text><text class="terminal-r4" x="329.4" y="166.4" textLength="170.8" clip-path="url(#terminal-line-6)">&#160;Estado&#160;&#160;&#160;&#160;&#160;&#160;&#160;</text><text class="terminal-r4" x="500.2" y="166.4" textLength="85.4" clip-path="url(#terminal-line-6)">&#160;Costo&#160;</text><text class="terminal-r4" x="585.6" y="166.4" textLength="158.6" clip-path="url(#terminal-line-6)">&#160;Inicio&#160;&#160;&#160;&#160;&#160;&#160;</text><text class="terminal-r1" x="976" y="166.4" textLength="12.2" clip-path="url(#terminal-line-6)">
</text><text class="terminal-r6" x="24.4" y="190.8" textLength="12.2" clip-path="url(#terminal-line-7)">✓</text><text class="terminal-r7" x="61" y="190.8" textLength="12.2" clip-path="url(#terminal-line-7)">│</text><text class="terminal-r6" x="122" y="190.8" textLength="109.8" clip-path="url(#terminal-line-7)">&#160;pruebas&#160;</text><text class="terminal-r6" x="231.8" y="190.8" textLength="97.6" clip-path="url(#terminal-line-7)">&#160;–&#160;&#160;&#160;&#160;&#160;&#160;</text><text class="terminal-r6" x="329.4" y="190.8" textLength="170.8" clip-path="url(#terminal-line-7)">&#160;✗&#160;falló&#160;&#160;&#160;&#160;&#160;&#160;</text><text class="terminal-r6" x="500.2" y="190.8" textLength="85.4" clip-path="url(#terminal-line-7)">&#160;&#160;&#160;&#160;&#160;–&#160;</text><text class="terminal-r6" x="585.6" y="190.8" textLength="158.6" clip-path="url(#terminal-line-7)">&#160;09-23&#160;10:02&#160;</text><text class="terminal-r1" x="976" y="190.8" textLength="12.2" clip-path="url(#terminal-line-7)">
</text><text class="terminal-r6" x="24.4" y="215.2" textLength="12.2" clip-path="url(#terminal-line-8)">✎</text><text class="terminal-r7" x="61" y="215.2" textLength="12.2" clip-path="url(#terminal-line-8)">│</text><text class="terminal-r6" x="122" y="215.2" textLength="109.8" clip-path="url(#terminal-line-8)">&#160;mandato&#160;</text><text class="terminal-r6" x="231.8" y="215.2" textLength="97.6" clip-path="url(#terminal-line-8)">&#160;claude&#160;</text><text class="terminal-r6" x="329.4" y="215.2" textLength="170.8" clip-path="url(#terminal-line-8)">&#160;✓&#160;completada&#160;</text><text class="terminal-r6" x="500.2" y="215.2" textLength="85.4" clip-path="url(#terminal-line-8)">&#160;$2.42&#160;</text><text class="terminal-r6" x="585.6" y="215.2" textLength="158.6" clip-path="url(#terminal-line-8)">&#160;09-22&#160;18:40&#160;</text><text class="terminal-r1" x="976" y="215.2" textLength="12.2" clip-path="url(#terminal-line-8)">
</text><text class="terminal-r6" x="24.4" y="239.6" textLength="12.2" clip-path="url(#terminal-line-9)">▦</text><text class="terminal-r7" x="61" y="239.6" textLength="12.2" clip-path="url(#terminal-line-9)">│</text><text class="terminal-r6" x="122" y="239.6" textLength="109.8" clip-path="url(#terminal-line-9)">&#160;inicio&#160;&#160;</text><text class="terminal-r6" x="231.8" y="239.6" textLength="97.6" clip-path="url(#terminal-line-9)">&#160;claude&#160;</text><text class="terminal-r6" x="329.4" y="239.6" textLength="170.8" clip-path="url(#terminal-line-9)">&#160;✓&#160;completada&#160;</text><text class="terminal-r6" x="500.2" y="239.6" textLength="85.4" clip-path="url(#terminal-line-9)">&#160;$1.59&#160;</text><text class="terminal-r6" x="585.6" y="239.6" textLength="158.6" clip-path="url(#terminal-line-9)">&#160;09-21&#160;09:15&#160;</text><text class="terminal-r1" x="976" y="239.6" textLength="12.2" clip-path="url(#terminal-line-9)">
</text><text class="terminal-r6" x="24.4" y="264" textLength="12.2" clip-path="url(#terminal-line-10)">≣</text><text class="terminal-r7" x="61" y="264" textLength="12.2" clip-path="url(#terminal-line-10)">│</text><text class="terminal-r1" x="976" y="264" textLength="12.2" clip-path="url(#terminal-line-10)">
</text><text class="terminal-r6" x="24.4" y="288.4" textLength="12.2" clip-path="url(#terminal-line-11)">◆</text><text class="terminal-r7" x="61" y="288.4" textLength="12.2" clip-path="url(#terminal-line-11)">│</text><text class="terminal-r1" x="976" y="288.4" textLength="12.2" clip-path="url(#terminal-line-11)">
</text><text class="terminal-r6" x="24.4" y="312.8" textLength="12.2" clip-path="url(#terminal-line-12)">✚</text><text class="terminal-r7" x="61" y="312.8" textLength="12.2" clip-path="url(#terminal-line-12)">│</text><text class="terminal-r2" x="122" y="312.8" textLength="317.2" clip-path="url(#terminal-line-12)">Tokens,&#160;últimos&#160;siete&#160;días</text><text class="terminal-r1" x="976" y="312.8" textLength="12.2" clip-path="url(#terminal-line-12)">
</text><text class="terminal-r6" x="24.4" y="337.2" textLength="12.2" clip-path="url(#terminal-line-13)">✱</text><text class="terminal-r7" x="61" y="337.2" textLength="12.2" clip-path="url(#terminal-line-13)">│</text><text class="terminal-r8" x="463.6" y="337.2" textLength="122" clip-path="url(#terminal-line-13)">▁▁▁▁▁▁▁▁▁▁</text><text class="terminal-r9" x="805.2" y="337.2" textLength="109.8" clip-path="url(#terminal-line-13)">█████████</text><text class="terminal-r1" x="976" y="337.2" textLength="12.2" clip-path="url(#terminal-line-13)">
</text><text class="terminal-r6" x="24.4" y="361.6" textLength="12.2" clip-path="url(#terminal-line-14)">◇</text><text class="terminal-r7" x="61" y="361.6" textLength="12.2" clip-path="url(#terminal-line-14)">│</text><text class="terminal-r8" x="463.6" y="361.6" textLength="122" clip-path="url(#terminal-line-14)">██████████</text><text class="terminal-r9" x="805.2" y="361.6" textLength="109.8" clip-path="url(#terminal-line-14)">█████████</text><text class="terminal-r7" x="939.4" y="361.6" textLength="12.2" clip-path="url(#terminal-line-14)">▇</text><text class="terminal-r1" x="976" y="361.6" textLength="12.2" clip-path="url(#terminal-line-14)">
</text><text class="terminal-r7" x="61" y="386" textLength="12.2" clip-path="url(#terminal-line-15)">│</text><text class="terminal-r10" x="122" y="386" textLength="122" clip-path="url(#terminal-line-15)">▁▁▁▁▁▁▁▁▁▁</text><text class="terminal-r11" x="244" y="386" textLength="109.8" clip-path="url(#terminal-line-15)">▂▂▂▂▂▂▂▂▂</text><text class="terminal-r12" x="353.8" y="386" textLength="109.8" clip-path="url(#terminal-line-15)">▂▂▂▂▂▂▂▂▂</text><text class="terminal-r8" x="463.6" y="386" textLength="122" clip-path="url(#terminal-line-15)">██████████</text><text class="terminal-r10" x="585.6" y="386" textLength="109.8" clip-path="url(#terminal-line-15)">▁▁▁▁▁▁▁▁▁</text><text class="terminal-r13" x="695.4" y="386" textLength="109.8" clip-path="url(#terminal-line-15)">█████████</text><text class="terminal-r9" x="805.2" y="386" textLength="109.8" clip-path="url(#terminal-line-15)">█████████</text><text class="terminal-r1" x="976" y="386" textLength="12.2" clip-path="url(#terminal-line-15)">
</text><text class="terminal-r7" x="61" y="410.4" textLength="12.2" clip-path="url(#terminal-line-16)">│</text><text class="terminal-r3" x="122" y="410.4" textLength="280.6" clip-path="url(#terminal-line-16)">4.3M&#160;tokens&#160;esta&#160;semana</text><text class="terminal-r1" x="976" y="410.4" textLength="12.2" clip-path="url(#terminal-line-16)">
</text><text class="terminal-r7" x="61" y="434.8" textLength="12.2" clip-path="url(#terminal-line-17)">│</text><text class="terminal-r5" x="122" y="434.8" textLength="671" clip-path="url(#terminal-line-17)">último&#160;prefijo&#160;observado&#160;de&#160;Claude&#160;caliente&#160;hasta&#160;14:32</text><text class="terminal-r1" x="976" y="434.8" textLength="12.2" clip-path="url(#terminal-line-17)">
</text><text class="terminal-r7" x="61" y="459.2" textLength="12.2" clip-path="url(#terminal-line-18)">│</text><text class="terminal-r5" x="122" y="459.2" textLength="146.4" clip-path="url(#terminal-line-18)">(estimación)</text><text class="terminal-r14" x="939.4" y="459.2" textLength="12.2" clip-path="url(#terminal-line-18)">▃</text><text class="terminal-r1" x="976" y="459.2" textLength="12.2" clip-path="url(#terminal-line-18)">
</text><text class="terminal-r7" x="61" y="483.6" textLength="12.2" clip-path="url(#terminal-line-19)">│</text><text class="terminal-r1" x="976" y="483.6" textLength="12.2" clip-path="url(#terminal-line-19)">
</text><text class="terminal-r7" x="61" y="508" textLength="12.2" clip-path="url(#terminal-line-20)">│</text><text class="terminal-r4" x="122" y="508" textLength="231.8" clip-path="url(#terminal-line-20)">Mandatos&#160;en&#160;cola:&#160;3</text><text class="terminal-r6" x="353.8" y="508" textLength="36.6" clip-path="url(#terminal-line-20)">&#160;·&#160;</text><text class="terminal-r5" x="390.4" y="508" textLength="341.6" clip-path="url(#terminal-line-20)">prefijo&#160;caliente&#160;hasta&#160;14:32</text><text class="terminal-r1" x="976" y="508" textLength="12.2" clip-path="url(#terminal-line-20)">
</text><text class="terminal-r7" x="61" y="532.4" textLength="12.2" clip-path="url(#terminal-line-21)">│</text><text class="terminal-r15" x="122" y="532.4" textLength="195.2" clip-path="url(#terminal-line-21)">cuanta&#160;queue&#160;run</text><text class="terminal-r1" x="976" y="532.4" textLength="12.2" clip-path="url(#terminal-line-21)">
</text><text class="terminal-r7" x="61" y="556.8" textLength="12.2" clip-path="url(#terminal-line-22)">│</text><text class="terminal-r1" x="976" y="556.8" textLength="12.2" clip-path="url(#terminal-line-22)">
</text><text class="terminal-r16" x="0" y="581.2" textLength="36.6" clip-path="url(#terminal-line-23)">&#160;g&#160;</text><text class="terminal-r6" x="36.6" y="581.2" textLength="134.2" clip-path="url(#terminal-line-23)">Abrir&#160;Mapa&#160;</text>
    </g>
    </g>
</svg>
